<svg version="1.1" xmlns="http://www.w3.org/2000/svg" xmlns:xlink="http://www.w3.org/1999/xlink" viewBox="0 0 864.9 945.1"><style>@keyframes dash {to{stroke-dashoffset: 4069}} .logo{animation: dash 2s linear infinite}</style><path class="logo" fill="#d58673" stroke="#cd6e57" stroke-width="12" stroke-dasharray="2034" d="M763,472.6c0,49.5-9.5,96.3-28.4,140.4c-18.9,44-44.8,82.4-77.5,115.1c-32.7,32.7-71.1,58.5-115.2,77.4c-44.1,18.9-90.9,28.4-140.5,28.4H101.9l354.2-354.2L387.4,661l20.4-0.1c24.8,0.1,49.3-4.8,72.2-14.3c46.4-18.6,83.3-55.3,102.2-101.6c9.6-22.7,14.4-46.8,14.4-72.5c0.1-24.7-4.8-49.3-14.4-72.1c-18.7-46.5-55.6-83.4-102.1-102c-22.9-9.5-47.4-14.4-72.2-14.3H268.4v156.1L101.9,606.8V111.4h299.6c49.6,0,96.4,9.5,140.5,28.4c44.1,18.9,82.5,44.7,115.2,77.4c32.7,32.7,58.5,71,77.5,115.1C753.5,376.2,763,423,763,472.6z"></path></svg>